<svg width="150" height="24" viewBox="0 0 150 24" fill="none" xmlns="http://www.w3.org/2000/svg">
<g clip-path="url(#clip0_7816_6536)">
<path d="M0.638298 11.0655C1.17021 8.32557 3.61702 6.42871 7.02128 6.42871C10.9574 6.42871 14.0426 8.11481 14.0426 13.3839V23.1843H10.6383L10.2128 21.0767C9.04255 22.552 7.44681 23.5005 5.10638 23.5005C2.23404 23.5005 0 21.709 0 18.4422C0 15.1753 2.97872 13.0677 7.12766 13.0677H9.89362V12.3301C9.89362 10.4332 8.51064 9.90629 6.91489 9.90629C5.74468 9.90629 4.57447 10.3278 4.04255 11.8032L0.638298 11.0655ZM6.06383 20.0229C7.97872 20.0229 9.89362 18.7583 9.89362 16.6507V16.3345H7.23404C5.42553 16.2292 4.3617 16.9668 4.3617 18.4422C4.3617 19.1798 5 20.0229 6.06383 20.0229Z" fill="black"/>
<path d="M80.8492 11.0645C81.3811 8.3246 83.828 6.42773 87.2322 6.42773C91.1684 6.42773 94.2535 8.11383 94.2535 13.3829V23.1833H90.8492L90.4237 21.0757C89.2535 22.5511 87.6577 23.4995 85.3173 23.4995C82.445 23.4995 80.2109 21.708 80.2109 18.4412C80.2109 15.1744 83.1897 13.0667 87.3386 13.0667H90.1045V12.3291C90.1045 10.4322 88.7216 9.90531 87.1258 9.90531C85.9556 9.90531 84.7854 10.3268 84.2535 11.8022L80.8492 11.0645ZM86.2748 20.0219C88.1897 20.0219 90.1045 18.7573 90.1045 16.6497V16.3336H87.3386C85.5301 16.3336 84.4663 16.9659 84.4663 18.4412C84.5726 19.1789 85.2109 20.0219 86.2748 20.0219Z" fill="black"/>
<path d="M97.9805 23.2887V6.6385H102.129V9.37841C103.3 7.37616 105.215 6.42773 107.023 6.42773C107.768 6.42773 108.406 6.53312 109.044 6.74388L108.3 10.5376C107.768 10.2215 107.236 10.0107 106.597 10.0107C104.151 10.0107 102.129 12.0129 102.129 17.282V23.1833L97.9805 23.2887Z" fill="black"/>
<path d="M117.874 6.42825C119.576 6.42825 121.171 7.2713 121.916 8.21973V0H126.065V23.2892H121.916V21.6031C121.384 22.4462 119.895 23.6054 117.874 23.6054C112.874 23.6054 110.32 20.1278 110.32 15.0695C110.32 10.0112 112.874 6.42825 117.874 6.42825ZM118.512 20.0224C120.639 20.0224 122.342 18.2309 122.342 14.9641C122.342 11.6973 120.639 9.90583 118.512 9.90583C116.384 9.90583 114.682 11.6973 114.682 14.9641C114.682 18.2309 116.384 20.0224 118.512 20.0224Z" fill="black"/>
<path d="M140.956 9.06307L138.509 11.2761C137.765 10.2223 136.594 9.80073 135.743 9.80073C134.892 9.80073 134.148 10.3276 134.148 11.1707C134.148 11.9084 134.786 12.4353 135.743 12.7514C138.084 13.5945 141.807 14.3321 141.807 17.8097C141.807 20.8658 139.467 23.2895 135.85 23.2895C132.339 23.2895 129.999 20.8658 129.254 18.8635L132.552 17.072C133.19 18.6528 134.254 19.8119 135.956 19.8119C137.233 19.8119 138.084 19.1797 138.084 18.0205C138.084 16.6505 135.956 16.3344 133.935 15.4913C132.126 14.7536 130.53 13.5945 130.53 11.0653C130.53 8.53616 132.658 6.21777 135.85 6.21777C137.977 6.32315 139.999 7.48235 140.956 9.06307Z" fill="black"/>
<path d="M55.2111 6.63867L52.2324 18.1252L49.36 6.63867H45.5303L42.7643 18.1252L40.4239 11.4862L40.1047 12.2239L38.8281 16.5445L40.9558 23.2889H44.5728L47.4451 12.54L50.3175 23.2889H54.0409L59.36 6.63867H55.2111Z" fill="black"/>
<path d="M75.1065 6.63867L72.1278 18.1252L69.2555 6.63867H65.4257L62.6597 18.1252L60.3193 11.4862L60.0002 12.2239L58.6172 16.5445L60.8512 23.2889H64.4683L67.3406 12.54L70.2129 23.2889H73.83L79.2555 6.63867H75.1065Z" fill="black"/>
<path d="M39.4686 6.63867L34.1494 23.1835H30.5324L27.6601 12.54L24.7877 23.2889H21.1707L15.8516 6.74405H20.0005L22.9792 18.1252L25.8516 6.74405H29.6813L32.5537 18.1252L35.5324 6.74405L39.4686 6.63867Z" fill="black"/>
<path d="M147.235 17.915C148.83 17.915 150.001 19.0742 150.001 20.6549C150.001 22.2357 148.83 23.3949 147.235 23.3949C145.639 23.3949 144.469 22.2357 144.469 20.6549C144.469 19.0742 145.639 17.915 147.235 17.915Z" fill="black"/>
</g>
<defs>
<clipPath id="clip0_7816_6536">
<rect width="150" height="23.5" fill="white"/>
</clipPath>
</defs>
</svg>
