<svg width="42" height="42" viewBox="0 0 42 42" fill="none" xmlns="http://www.w3.org/2000/svg">
<path fill-rule="evenodd" clip-rule="evenodd" d="M21.3398 0C21.9711 0 22.483 0.511842 22.483 1.14323V15.666L23.7086 18.9782L27.0189 20.2031L40.0131 20.2031C40.6445 20.2031 41.1563 20.715 41.1563 21.3464C41.1563 21.9777 40.6445 22.4896 40.0131 22.4896H27.0143L23.7086 23.7128L22.483 27.0251V40.0131C22.483 40.6445 21.9711 41.1563 21.3398 41.1563C20.7084 41.1563 20.1965 40.6445 20.1965 40.0131V27.0164L18.9741 23.7128L15.6684 22.4896H1.14323C0.511841 22.4896 0 21.9777 0 21.3464C0 20.715 0.511841 20.2031 1.14323 20.2031L15.6638 20.2031L18.9741 18.9782L20.1965 15.6746V1.14323C20.1965 0.511842 20.7084 0 21.3398 0Z" fill="black"/>
</svg>
