<svg width="42" height="42" viewBox="0 0 42 42" fill="none" xmlns="http://www.w3.org/2000/svg">
<path fill-rule="evenodd" clip-rule="evenodd" d="M21.34 0C21.9714 0 22.4832 0.511842 22.4832 1.14323V15.6653L23.7087 18.9772L27.0182 20.2018H40.0131C40.6445 20.2018 41.1563 20.7136 41.1563 21.345C41.1563 21.9764 40.6445 22.4882 40.0131 22.4882L27.0151 22.4882L23.7087 23.7117L22.4832 27.0236V40.0131C22.4832 40.6445 21.9714 41.1563 21.34 41.1563C20.7086 41.1563 20.1967 40.6445 20.1967 40.0131V27.0157L18.9741 23.7117L15.6677 22.4882L1.14323 22.4882C0.511841 22.4882 0 21.9764 0 21.345C0 20.7136 0.511841 20.2018 1.14323 20.2018H15.6646L18.9741 18.9772L20.1967 15.6731V1.14323C20.1967 0.511842 20.7086 0 21.34 0Z" fill="white"/>
</svg>
