<svg width="41" height="41" viewBox="0 0 41 41" fill="none" xmlns="http://www.w3.org/2000/svg">
<path fill-rule="evenodd" clip-rule="evenodd" d="M21.2547 -0.00292969C21.8861 -0.00292969 22.398 0.508913 22.398 1.1403V15.6148L23.6143 18.9018L26.8962 20.1162L39.8533 20.1162C40.4847 20.1162 40.9966 20.6281 40.9966 21.2594C40.9966 21.8908 40.4847 22.4027 39.8533 22.4027H26.897L23.6143 23.6174L22.398 26.9044V39.8543C22.398 40.4857 21.8861 40.9976 21.2547 40.9976C20.6234 40.9976 20.1115 40.4857 20.1115 39.8543V26.895L18.8987 23.6174L15.616 22.4027H1.13932C0.507934 22.4027 -0.00390625 21.8908 -0.00390625 21.2594C-0.00390625 20.628 0.507935 20.1162 1.13932 20.1162L15.6168 20.1162L18.8987 18.9018L20.1115 15.6242V1.1403C20.1115 0.508912 20.6234 -0.00292969 21.2547 -0.00292969Z" fill="white"/>
</svg>
